<svg  viewBox="0 0 30 40" fill="none" xmlns="http://www.w3.org/2000/svg">
<path d="M20 40C17.2667 40 14.6833 39.475 12.25 38.425C9.81667 37.375 7.69167 35.9417 5.875 34.125C4.05833 32.3083 2.625 30.1833 1.575 27.75C0.525 25.3167 0 22.7333 0 20C0 17.2333 0.525 14.6417 1.575 12.225C2.625 9.80833 4.05833 7.69167 5.875 5.875C7.69167 4.05833 9.81667 2.625 12.25 1.575C14.6833 0.525 17.2667 0 20 0C21.8 0 23.55 0.233333 25.25 0.7C26.95 1.16667 28.5333 1.83333 30 2.7C26.9667 4.46667 24.5417 6.85833 22.725 9.875C20.9083 12.8917 20 16.2667 20 20C20 23.7333 20.9083 27.1083 22.725 30.125C24.5417 33.1417 26.9667 35.5333 30 37.3C28.5333 38.1667 26.95 38.8333 25.25 39.3C23.55 39.7667 21.8 40 20 40Z" fill="black"/>
</svg>
